# xmcd
#
# Track frame offsets:
#	150
#	21046
#	39051
#	58847
#	82052
#	95399
#	116079
#
# Disc length: 1961 seconds
#
# Revision: 0
# Processed by: cddbd v1.5.2PL0 Copyright (c) Steve Scherf et al.
# Submitted via: EasyCDDAExtractor 16.0.0.1
#
DISCID=5007a707
DTITLE=Opium Lord - The calendrical cycle: Eye of earth
DYEAR=2015
DGENRE=
TTITLE0=Challenger
TTITLE1=Pink mass
TTITLE2=Crystals\nCrystals
TTITLE3=Black libraries
TTITLE4=Azazel
TTITLE5=Ghost singer
TTITLE6=Krocodil
EXTD=
EXTT0=
EXTT1=
EXTT2=
EXTT3=
EXTT4=
EXTT5=
EXTT6=
PLAYORDER=
